<?xml version="1.0" standalone="no"?>
<!DOCTYPE svg PUBLIC "-//W3C//DTD SVG 20010904//EN"
 "http://www.w3.org/TR/2001/REC-SVG-20010904/DTD/svg10.dtd">
<svg version="1.0" xmlns="http://www.w3.org/2000/svg"
 width="1200.000000pt" height="562.000000pt" viewBox="0 0 1200.000000 562.000000"
 preserveAspectRatio="xMidYMid meet">

<g transform="translate(0.000000,562.000000) scale(0.100000,-0.100000)"
fill="#000000" stroke="none">
<path d="M740 5554 c-36 -94 28 -296 171 -542 75 -130 319 -502 328 -502 4 0
21 10 38 23 l31 23 -95 144 c-217 331 -337 555 -409 767 -22 62 -42 113 -47
113 -4 0 -12 -12 -17 -26z"/>
<path d="M3156 5497 c-90 -256 -202 -465 -448 -836 l-70 -104 29 -23 c15 -13
33 -23 38 -24 11 0 161 222 281 416 130 211 234 456 234 553 0 33 -19 101 -28
101 -4 0 -20 -37 -36 -83z"/>
<path d="M565 5326 c-26 -137 113 -381 446 -781 62 -74 115 -135 119 -135 3 0
20 15 37 33 l32 32 -106 125 c-226 268 -359 461 -459 663 -27 53 -52 97 -56
97 -4 0 -10 -15 -13 -34z"/>
<path d="M3304 5243 c-94 -189 -232 -385 -453 -648 -42 -50 -82 -98 -89 -107
-12 -15 -9 -22 21 -52 l35 -35 129 157 c265 323 387 507 423 642 14 51 15 139
2 152 -5 5 -33 -41 -68 -109z"/>
<path d="M1054 5215 c-10 -40 3 -112 32 -174 13 -30 92 -166 174 -302 83 -136
150 -256 150 -267 0 -21 -24 -52 -41 -52 -6 0 -24 7 -41 16 -24 13 -35 13 -58
4 -30 -13 -56 -60 -46 -85 4 -11 -2 -15 -23 -15 -52 0 -93 -74 -59 -108 9 -9
7 -12 -9 -12 -49 0 -78 -52 -59 -107 6 -19 4 -23 -13 -23 -45 0 -68 -83 -32
-119 19 -19 19 -20 -4 -35 -13 -9 -26 -25 -30 -36 -9 -28 12 -78 36 -85 19 -6
19 -7 -1 -32 -11 -14 -20 -38 -20 -53 0 -27 36 -70 58 -70 10 0 10 -5 2 -20
-20 -37 -8 -83 27 -105 18 -11 31 -24 29 -30 -1 -6 -48 -11 -104 -13 -102 -3
-102 -3 -96 -26 5 -21 -2 -29 -58 -62 -160 -96 -390 -203 -546 -254 -89 -30
-162 -57 -162 -61 0 -13 62 -29 110 -29 111 0 349 92 590 228 115 65 126 69
143 55 9 -9 17 -22 17 -29 0 -7 -48 -57 -107 -110 -209 -189 -378 -314 -561
-414 -45 -25 -82 -48 -82 -52 0 -17 72 -19 131 -4 129 34 303 153 572 393 118
104 118 105 140 87 12 -11 24 -20 26 -21 2 -1 -57 -73 -130 -160 -175 -207
-389 -420 -518 -516 -109 -81 -114 -97 -30 -83 134 21 339 194 611 516 77 91
143 166 147 168 4 1 15 -4 25 -11 17 -13 13 -22 -69 -153 -209 -331 -357 -532
-507 -689 -90 -94 -99 -107 -73 -101 55 13 162 95 274 211 132 136 220 252
360 475 127 200 122 194 145 177 17 -13 12 -26 -84 -208 -211 -398 -338 -599
-493 -784 -47 -55 -81 -101 -77 -103 35 -13 146 98 292 294 121 162 198 287
332 539 77 144 95 186 90 208 -7 32 -7 31 39 12 38 -16 36 -9 88 -204 l23 -83
-35 -29 c-33 -27 -33 -28 -14 -43 19 -14 19 -15 1 -35 -14 -16 -23 -18 -37
-10 -14 7 -29 2 -66 -25 -70 -49 -107 -66 -148 -66 -25 0 -35 -4 -33 -12 6
-18 81 -36 149 -37 55 -1 56 -2 118 -65 68 -71 100 -132 101 -188 0 -20 4 -39
9 -43 5 -3 26 22 46 54 l37 60 24 -28 c29 -35 69 -50 54 -21 -16 29 -12 66 12
112 16 31 23 65 26 130 l4 88 38 0 38 0 7 -84 c4 -46 6 -120 4 -164 -5 -100
-12 -108 -151 -182 -128 -69 -168 -107 -168 -158 l0 -37 27 48 c17 30 36 50
51 54 29 7 209 -3 235 -13 13 -5 -13 -27 -111 -93 -160 -108 -293 -212 -315
-245 -23 -34 -21 -82 2 -105 24 -24 81 -54 88 -47 3 2 -2 27 -12 55 l-16 50
31 60 c58 109 125 171 184 171 29 0 90 -50 112 -92 l15 -28 -341 -378 -341
-377 355 -5 c195 -3 358 -9 362 -13 5 -4 -11 -46 -34 -93 -23 -46 -42 -89 -42
-94 0 -16 102 -230 110 -230 4 0 33 56 64 124 l58 123 -42 83 c-23 45 -38 85
-35 89 4 3 168 7 366 9 l359 4 -322 356 c-176 196 -330 367 -342 380 -20 23
-20 23 -1 58 43 81 114 106 171 62 38 -30 62 -58 107 -131 41 -67 44 -85 22
-146 -16 -48 -8 -52 42 -21 46 27 66 63 58 99 -10 48 -186 200 -378 326 -69
46 -65 51 56 61 105 8 135 -2 166 -57 27 -47 36 -45 27 5 -9 46 -59 89 -174
150 -51 27 -104 62 -117 78 -37 44 -43 146 -19 311 5 34 8 37 38 37 l33 0 6
-87 c5 -65 13 -99 32 -136 29 -57 31 -74 9 -105 -18 -26 -13 -27 25 -7 26 13
39 35 57 95 7 24 8 24 16 -10 5 -19 26 -61 46 -92 l37 -57 12 59 c6 33 29 89
52 127 70 119 63 113 141 113 83 0 164 16 181 36 10 12 5 14 -31 14 -43 0 -98
25 -167 77 -30 23 -33 23 -55 9 -23 -15 -26 -14 -54 15 -19 21 -25 33 -16 36
20 8 14 20 -22 42 l-33 21 41 135 c40 134 41 135 78 150 49 19 48 19 48 -9 0
-24 116 -251 218 -426 152 -262 397 -571 471 -595 12 -4 24 -5 26 -3 2 2 -30
43 -71 91 -173 205 -351 494 -553 895 -40 79 -41 85 -24 98 10 7 21 14 24 14
3 0 58 -82 122 -182 132 -210 187 -285 303 -419 98 -113 190 -196 270 -244
106 -64 107 -44 3 63 -160 163 -293 343 -499 670 -86 136 -100 165 -89 178 6
8 18 14 24 12 7 -2 60 -59 117 -128 281 -334 459 -496 601 -544 48 -16 99 -21
110 -10 3 3 -40 40 -96 81 -125 93 -361 329 -526 526 -121 144 -123 148 -106
167 10 11 22 20 28 20 5 0 40 -28 77 -63 177 -167 421 -351 533 -402 73 -33
141 -48 182 -41 39 8 46 21 15 31 -37 12 -255 148 -345 215 -90 68 -228 185
-337 286 l-58 53 23 25 22 24 130 -74 c133 -75 285 -147 410 -192 88 -31 243
-38 271 -11 15 16 12 18 -42 33 -187 52 -437 163 -637 281 -71 42 -78 49 -73
71 l6 24 -105 0 c-87 0 -105 3 -105 15 0 8 5 15 10 15 6 0 22 11 35 25 29 28
32 70 8 97 -15 17 -15 18 5 18 25 0 62 44 62 75 0 13 -8 33 -19 46 -18 22 -18
23 7 44 35 30 35 81 -1 109 -25 21 -26 21 -6 45 10 13 19 34 19 47 0 26 -32
64 -54 64 -10 0 -12 11 -9 44 4 35 1 48 -16 65 -11 11 -30 21 -40 21 -17 0
-18 3 -8 30 10 25 8 34 -9 57 -14 18 -32 29 -52 31 -27 3 -31 7 -30 34 1 23
-7 38 -27 55 -28 25 -35 25 -92 2 -28 -11 -34 -11 -52 6 -12 10 -21 24 -21 31
0 8 51 96 113 196 165 266 216 359 238 428 21 68 24 107 9 130 -12 19 -14 15
-34 -47 -28 -84 -147 -316 -252 -488 -120 -199 -284 -487 -284 -500 0 -5 19
-21 41 -35 61 -37 125 -114 149 -178 40 -104 8 -231 -78 -315 l-40 -39 24 -59
c29 -72 29 -69 0 -69 -26 0 -60 63 -176 325 -32 72 -72 159 -89 195 -30 60
-32 72 -29 158 3 126 -4 131 -154 132 -58 0 -114 -3 -123 -7 -15 -5 -15 -8 6
-24 l23 -17 -56 -119 c-31 -65 -82 -183 -113 -263 -31 -80 -82 -198 -113 -262
-47 -98 -61 -117 -79 -118 -29 0 -29 7 2 81 l26 60 -45 50 c-134 149 -91 343
108 484 l28 20 -70 120 c-38 66 -120 203 -181 305 -129 213 -227 401 -277 533
-20 50 -38 94 -40 96 -1 2 -6 -9 -10 -24z m1242 -3855 l309 -325 -318 -3
c-174 -1 -458 -1 -631 0 l-315 3 316 333 c174 183 319 329 323 325 4 -4 146
-154 316 -333z m-291 -515 l27 -66 -32 -74 c-18 -41 -34 -75 -36 -75 -2 0 -19
31 -39 69 l-35 70 36 75 c20 42 39 74 43 71 4 -2 20 -34 36 -70z"/>
<path d="M1723 1352 l-241 -257 244 -3 c134 -1 354 -1 489 0 l245 3 -240 255
c-132 140 -244 256 -248 257 -4 0 -116 -114 -249 -255z m333 106 c105 -109
112 -118 87 -118 -12 0 -25 13 -36 35 l-17 35 -115 0 -116 0 -20 -35 c-14 -22
-29 -35 -42 -35 -18 0 -15 7 23 48 112 119 145 152 150 152 3 0 42 -37 86 -82z
m41 -103 c15 -30 21 -35 53 -35 28 0 44 -8 70 -35 l34 -35 -67 0 -67 0 0 30 0
30 -145 0 -145 0 0 -30 0 -30 -72 0 -72 0 34 35 c27 28 42 35 72 35 34 0 40 4
55 35 l17 35 108 0 108 0 17 -35z m223 -175 l32 -40 -383 0 -383 0 35 36 c31
32 34 33 37 15 3 -21 8 -21 313 -21 l309 0 0 25 c0 14 2 25 4 25 2 0 19 -18
36 -40z"/>
<path d="M1947 804 c-13 -26 -13 -32 0 -58 l15 -30 14 25 c17 31 17 51 0 74
-13 18 -14 17 -29 -11z"/>
<path d="M405 5087 c-15 -59 48 -194 143 -306 103 -123 210 -227 478 -463 21
-19 22 -19 53 20 l31 39 -98 84 c-226 194 -410 388 -531 559 -70 98 -69 97
-76 67z"/>
<path d="M3475 5030 c-127 -180 -275 -337 -523 -554 l-112 -99 27 -36 c14 -20
28 -38 29 -40 10 -12 370 325 462 431 137 158 186 252 180 340 l-3 43 -60 -85z"/>
<path d="M11275 4907 c-44 -21 -102 -90 -115 -139 -36 -133 65 -261 205 -260
70 0 128 32 170 90 26 38 30 52 30 110 0 83 -25 135 -84 177 -35 24 -53 30
-109 32 -41 2 -79 -2 -97 -10z m176 -61 c96 -66 88 -219 -14 -273 -78 -41
-183 -7 -218 71 -24 53 -24 90 2 143 39 81 155 110 230 59z"/>
<path d="M11280 4710 l0 -90 30 0 c28 0 30 3 30 35 0 19 5 35 10 35 6 0 18
-16 27 -35 14 -30 22 -35 50 -35 32 0 33 1 22 23 -6 12 -19 30 -28 40 -14 17
-14 19 2 28 20 11 23 59 5 77 -7 7 -40 12 -80 12 l-68 0 0 -90z m105 40 c0 -8
-10 -16 -22 -18 -18 -3 -23 2 -23 18 0 16 5 21 23 18 12 -2 22 -10 22 -18z"/>
<path d="M6060 4901 c0 -5 -30 -12 -67 -15 -80 -8 -166 -31 -200 -53 -39 -26
-63 -87 -75 -186 -6 -57 -8 -276 -5 -577 4 -454 6 -490 26 -569 55 -215 178
-347 385 -410 94 -29 101 -26 31 12 -129 69 -223 200 -262 364 -16 71 -18 132
-18 638 0 512 2 564 18 606 32 83 81 111 226 130 91 12 91 12 91 40 l0 29 -75
0 c-41 0 -75 -4 -75 -9z"/>
<path d="M7716 4901 c-4 -5 -30 -12 -59 -16 -134 -17 -199 -51 -240 -129 -21
-39 -22 -55 -25 -323 -3 -235 -1 -283 10 -283 8 0 42 9 75 21 l61 20 4 232 c3
226 4 234 29 288 15 31 39 65 55 76 34 24 115 49 192 58 49 7 52 8 52 36 l0
29 -74 0 c-41 0 -77 -4 -80 -9z"/>
<path d="M5120 4860 c0 -5 11 -10 24 -10 13 0 33 -3 43 -6 10 -3 7 2 -7 10
-29 18 -60 21 -60 6z"/>
<path d="M7000 4860 c0 -5 6 -10 14 -10 7 0 29 -2 47 -5 l34 -5 -30 14 c-35
18 -65 20 -65 6z"/>
<path d="M284 4799 c22 -137 190 -299 564 -542 l132 -87 22 45 c12 24 20 46
17 48 -2 2 -71 48 -154 102 -207 135 -330 231 -464 363 -63 61 -116 112 -119
112 -2 0 -2 -18 2 -41z"/>
<path d="M3605 4786 c-104 -122 -330 -302 -562 -448 -62 -38 -113 -74 -113
-79 0 -17 34 -79 43 -79 14 0 285 180 382 254 175 133 284 258 305 351 13 60
-4 60 -55 1z"/>
<path d="M2070 4700 c-8 -5 -68 -10 -132 -10 l-117 0 -22 -31 c-14 -20 -47
-42 -88 -61 -72 -31 -91 -49 -91 -85 0 -27 37 -52 46 -29 7 20 50 29 74 16 28
-15 25 -26 -12 -38 -32 -10 -32 -10 20 -11 45 -1 52 -4 52 -21 0 -35 -43 -37
-122 -5 -29 11 -22 -32 7 -51 20 -13 38 -15 91 -9 61 6 66 5 60 -10 -6 -16 3
-17 119 -11 105 6 128 5 147 -8 12 -9 26 -16 30 -16 14 0 9 147 -8 259 -22
145 -21 142 -54 121z m-131 -93 c-34 -34 -55 -38 -74 -17 -15 17 -14 18 22 28
21 5 46 10 57 11 17 1 16 -1 -5 -22z m-148 -33 c14 -8 16 -44 3 -55 -10 -8
-22 -8 -42 -1 -16 5 -41 7 -56 5 -25 -5 -27 -3 -24 18 5 39 75 59 119 33z"/>
<path d="M9542 4572 c-6 -15 -28 -55 -47 -87 -35 -58 -36 -60 -33 -154 l3 -96
75 0 75 0 3 183 2 182 -32 0 c-27 0 -36 -6 -46 -28z"/>
<path d="M180 4453 c0 -34 59 -111 121 -157 78 -59 246 -140 447 -215 90 -33
168 -61 172 -61 9 0 30 62 30 86 0 6 -26 19 -57 29 -225 69 -500 198 -690 323
-21 13 -23 13 -23 -5z"/>
<path d="M3680 4419 c-145 -95 -363 -197 -579 -268 -52 -17 -97 -34 -101 -36
-8 -5 10 -78 21 -90 12 -11 294 97 445 170 116 56 165 87 212 129 54 51 92
106 92 135 0 17 -10 13 -90 -40z"/>
<path d="M11040 4265 c101 -59 149 -131 150 -223 0 -48 -4 -58 -34 -88 -19
-19 -41 -34 -50 -34 -28 0 -17 -21 19 -36 79 -33 179 -4 209 61 44 93 -21 223
-142 284 -39 19 -116 45 -167 55 -26 6 -24 3 15 -19z"/>
<path d="M7923 4237 l-73 -31 0 -64 c0 -35 3 -62 8 -60 4 2 40 28 80 58 67 51
72 57 72 92 0 21 -3 37 -7 37 -5 -1 -41 -15 -80 -32z"/>
<path d="M8633 4218 c71 -39 161 -133 204 -214 93 -175 99 -481 13 -686 -57
-138 -172 -265 -299 -332 -100 -52 -163 -68 -301 -75 l-125 -6 72 -18 c91 -22
250 -22 346 -1 122 27 210 77 308 174 100 99 145 174 185 305 24 80 27 107 28
240 0 113 -4 166 -17 215 -57 212 -192 356 -386 414 -83 24 -92 19 -28 -16z"/>
<path d="M10556 4225 c-97 -34 -190 -123 -240 -229 -81 -171 -70 -445 25 -613
64 -113 199 -213 310 -229 l44 -6 -51 35 c-99 68 -179 191 -209 319 -19 82
-19 265 0 346 44 185 177 326 332 351 l48 8 -37 16 c-46 21 -167 22 -222 2z"/>
<path d="M9810 4170 l0 -30 -175 0 -176 0 3 -497 c3 -541 2 -534 60 -576 23
-18 128 -38 128 -24 0 2 -7 21 -15 40 -13 31 -15 113 -15 527 l0 490 170 0
170 0 0 50 0 50 -75 0 -75 0 0 -30z"/>
<path d="M9127 4133 c-18 -17 -5 -33 28 -33 28 0 35 4 35 20 0 15 -7 20 -28
20 -16 0 -32 -3 -35 -7z"/>
<path d="M120 4120 c0 -5 16 -28 36 -50 77 -85 265 -148 581 -193 92 -14 169
-24 170 -23 2 1 4 24 5 51 l3 48 -135 18 c-199 25 -337 55 -504 110 -170 56
-156 52 -156 39z"/>
<path d="M3725 4098 c-44 -16 -130 -43 -191 -59 -116 -30 -402 -79 -466 -79
l-38 0 0 -49 c0 -28 3 -52 8 -54 4 -2 81 7 172 20 315 44 507 108 584 193 62
69 51 73 -69 28z"/>
<path d="M8125 4109 c-22 -5 -57 -23 -77 -39 -24 -20 -38 -25 -41 -17 -4 13
-61 -21 -121 -74 l-36 -31 0 -388 0 -387 58 -55 c62 -59 145 -104 213 -114
l44 -7 -60 45 c-102 75 -95 41 -95 487 l0 389 60 45 c78 59 157 96 239 111
l66 13 -40 12 c-55 17 -162 22 -210 10z"/>
<path d="M7390 3874 c0 -127 -16 -293 -35 -369 -8 -33 -36 -102 -61 -154 -110
-225 -321 -355 -664 -412 -88 -14 -375 -18 -505 -6 -49 5 -87 6 -84 3 3 -3 59
-15 125 -27 161 -30 498 -32 649 -5 126 22 270 71 359 120 128 72 245 204 304
343 42 100 53 170 59 374 6 226 12 213 -91 225 l-56 7 0 -99z"/>
<path d="M3024 3751 c-3 -20 -6 -43 -7 -51 -2 -11 22 -17 108 -26 384 -40 610
-20 697 63 15 14 28 29 28 33 0 3 -51 0 -112 -8 -131 -15 -465 -9 -615 11
l-93 13 -6 -35z"/>
<path d="M715 3763 c-118 -14 -437 -12 -563 3 -46 6 -52 5 -46 -10 9 -25 81
-63 154 -83 82 -21 324 -23 528 -3 155 15 149 11 136 79 -6 29 -9 31 -48 30
-22 -1 -95 -8 -161 -16z"/>
<path d="M760 3564 c-194 -66 -363 -105 -543 -125 -119 -13 -125 -22 -39 -56
82 -32 249 -19 442 33 136 37 370 112 370 119 0 7 -39 95 -42 94 -2 -1 -86
-30 -188 -65z"/>
<path d="M2976 3584 c-10 -26 -15 -49 -10 -54 15 -13 362 -116 474 -140 148
-32 279 -32 343 -1 46 22 61 41 33 41 -38 0 -260 33 -342 51 -98 21 -297 81
-407 123 -37 14 -68 26 -70 26 -1 0 -10 -21 -21 -46z"/>
<path d="M11331 3345 c-38 -56 -157 -163 -214 -191 -28 -15 -76 -48 -106 -75
-102 -91 -251 -148 -390 -150 l-66 0 40 -15 c22 -8 78 -18 125 -21 269 -18
480 112 659 406 30 50 31 54 14 67 -27 20 -36 17 -62 -21z"/>
<path d="M9921 3058 c-30 -21 -72 -41 -93 -44 -21 -4 -66 -26 -100 -51 -68
-47 -166 -83 -232 -83 l-41 -1 30 -17 c23 -13 55 -17 141 -17 107 0 112 1 185
37 53 26 93 56 137 102 34 35 62 68 62 74 0 5 -8 16 -17 24 -16 14 -23 11 -72
-24z"/>
<path d="M7852 2718 c3 -305 7 -328 61 -362 21 -14 127 -40 133 -33 2 2 -5 21
-16 42 -18 36 -20 60 -20 302 l0 262 -76 36 c-42 19 -79 35 -81 35 -2 0 -3
-127 -1 -282z"/>
<path d="M4480 2475 l0 -55 1425 0 1425 0 0 55 0 55 -1425 0 -1425 0 0 -55z"/>
<path d="M8230 2475 l0 -55 1775 0 1775 0 0 55 0 55 -1775 0 -1775 0 0 -55z"/>
<path d="M1351 2353 c-12 -10 -29 -34 -39 -53 -14 -28 -25 -36 -57 -42 -63
-13 -96 -29 -93 -46 2 -9 32 -25 72 -38 38 -13 71 -25 73 -28 2 -2 -64 -108
-148 -235 l-151 -231 -37 0 c-26 0 -57 -13 -109 -45 -54 -34 -82 -45 -112 -45
-66 0 -108 -23 -130 -72 -20 -45 -24 -77 -14 -116 6 -20 11 -17 66 43 56 61
62 65 104 65 35 0 44 -3 44 -17 0 -26 -11 -38 -47 -57 -43 -22 -57 -50 -49
-103 8 -59 32 -103 56 -103 26 0 40 29 40 87 0 43 4 53 38 85 20 20 47 41 60
47 22 12 22 11 22 -63 l0 -76 40 -20 c53 -27 133 -27 160 0 30 30 25 38 -35
55 -42 13 -59 23 -70 45 -20 38 -19 85 1 105 32 32 94 56 137 53 38 -3 44 -7
63 -43 35 -68 84 -56 84 22 0 54 -21 105 -51 127 -26 18 -96 21 -147 7 -17 -5
-32 -7 -32 -5 0 5 186 231 221 268 17 18 18 18 45 -3 14 -11 40 -21 55 -21 29
0 35 10 30 55 -1 11 1 35 4 54 l6 34 33 -32 33 -32 7 42 c4 24 16 63 26 87 11
25 20 55 20 69 0 31 -34 97 -78 151 -31 37 -39 42 -77 42 -26 0 -51 -7 -64
-17z"/>
<path d="M2474 2338 c-46 -49 -71 -89 -83 -132 -9 -34 -7 -47 10 -85 11 -25
23 -70 26 -100 l6 -53 33 38 c37 45 42 40 46 -46 3 -49 5 -55 27 -58 13 -2 37
6 53 18 29 22 31 22 49 4 33 -34 228 -269 225 -272 -2 -1 -15 2 -30 8 -35 13
-122 13 -147 0 -59 -32 -77 -200 -21 -200 21 0 43 22 60 63 10 23 17 27 51 27
43 0 79 -13 124 -43 22 -15 27 -26 27 -60 0 -57 -20 -82 -80 -102 -27 -9 -52
-20 -55 -25 -3 -5 7 -18 22 -30 23 -18 38 -21 86 -18 37 3 67 11 85 25 26 20
27 25 24 93 l-2 71 40 -22 c67 -38 84 -62 86 -125 2 -61 21 -91 49 -81 24 10
46 73 43 125 -3 41 -7 48 -48 77 -25 18 -46 41 -48 53 -3 19 1 22 36 22 57 0
66 -5 121 -71 28 -33 52 -56 54 -52 31 55 -8 164 -67 188 -20 8 -52 15 -72 15
-26 0 -59 13 -111 45 -52 32 -85 45 -111 45 l-37 0 -152 233 -151 232 79 29
c43 16 79 33 79 38 0 13 -80 48 -112 48 -23 0 -32 8 -52 49 -27 53 -39 61 -95
61 -29 0 -44 -7 -67 -32z"/>
<path d="M8100 2286 c0 -14 -33 -16 -295 -16 -288 0 -295 0 -295 -20 0 -20 7
-20 370 -20 l370 0 0 24 c0 21 -6 25 -47 30 -27 4 -60 9 -75 12 -21 4 -28 2
-28 -10z"/>
<path d="M5490 1906 c-15 -19 -9 -56 12 -69 34 -22 66 41 36 71 -16 16 -33 15
-48 -2z"/>
<path d="M6836 1904 c-19 -18 -20 -28 -6 -55 19 -35 70 -14 70 30 0 12 -28 41
-40 41 -5 0 -16 -7 -24 -16z"/>
<path d="M7215 1902 c-22 -8 -47 -17 -55 -19 -11 -4 -8 -8 10 -12 24 -7 25
-11 28 -90 l3 -83 -23 16 c-55 39 -141 7 -180 -66 -28 -55 -31 -176 -5 -225
38 -72 124 -97 181 -52 l26 20 0 -20 c0 -25 8 -26 61 -4 41 16 41 16 20 32
-20 15 -21 25 -23 266 l-3 251 -40 -14z m-40 -217 c24 -23 25 -30 25 -146 0
-133 -6 -148 -60 -149 -56 0 -95 53 -106 142 -15 132 70 225 141 153z"/>
<path d="M7935 1909 c-11 -5 -33 -13 -50 -19 l-29 -11 24 -12 c23 -11 25 -19
28 -90 l3 -78 -30 16 c-104 53 -200 -37 -201 -188 0 -75 23 -134 62 -161 32
-23 104 -20 139 5 l29 20 0 -20 c0 -25 12 -25 65 -2 37 17 38 18 18 25 l-23 7
0 260 c0 142 -3 259 -7 258 -5 0 -17 -4 -28 -10z m-58 -223 c27 -24 28 -27 31
-144 4 -115 3 -120 -19 -136 -76 -53 -148 21 -149 151 0 71 10 103 41 132 30
28 61 27 96 -3z"/>
<path d="M9173 1901 c-48 -19 -64 -31 -40 -31 25 0 37 -33 37 -105 l0 -66 -30
16 c-73 38 -146 5 -185 -84 -19 -42 -20 -161 -1 -205 30 -72 114 -98 184 -56
32 20 32 20 32 0 0 -24 7 -25 56 -4 34 14 37 17 21 29 -15 11 -17 37 -17 263
0 138 -3 253 -7 255 -5 2 -27 -4 -50 -12z m-36 -215 c27 -24 28 -27 31 -144 4
-115 3 -120 -19 -136 -78 -54 -149 20 -149 154 0 130 64 189 137 126z"/>
<path d="M10138 1868 c-79 -94 -73 -102 21 -33 39 29 61 52 61 65 0 36 -36 22
-82 -32z"/>
<path d="M10722 1908 c-18 -18 -15 -68 4 -75 37 -14 70 41 44 73 -15 17 -32
18 -48 2z"/>
<path d="M4510 1890 c0 -5 6 -10 14 -10 8 0 22 -7 30 -16 13 -13 16 -42 16
-157 0 -169 12 -262 38 -296 35 -48 69 -65 136 -69 77 -5 126 10 163 49 46 48
55 90 60 269 5 199 6 208 38 216 51 13 22 24 -60 24 -50 0 -85 -4 -85 -10 0
-5 8 -10 18 -10 11 0 26 -8 35 -18 14 -16 17 -44 17 -183 0 -90 -5 -180 -10
-200 -23 -81 -107 -124 -184 -95 -72 28 -80 53 -84 260 -2 98 -1 189 2 202 4
14 16 26 31 30 54 13 20 24 -75 24 -60 0 -100 -4 -100 -10z"/>
<path d="M8210 1893 c0 -5 14 -14 30 -20 l30 -11 0 -234 c0 -242 -3 -258 -42
-258 -10 0 -18 -4 -18 -10 0 -6 42 -10 105 -10 63 0 105 4 105 10 0 6 -9 10
-19 10 -41 0 -51 25 -51 129 l0 98 63 5 c86 7 124 29 149 85 34 78 10 158 -58
193 -33 16 -294 28 -294 13z m259 -58 c22 -22 26 -34 26 -85 0 -76 -28 -109
-99 -117 l-46 -6 0 116 c0 83 4 117 13 121 25 11 82 -4 106 -29z"/>
<path d="M3515 1716 c-22 -51 -19 -74 14 -107 22 -22 39 -29 68 -29 39 0 63
12 121 62 18 15 43 28 55 28 30 0 67 -27 67 -49 0 -22 -30 -51 -53 -51 -21 0
-22 -16 -1 -24 47 -18 74 11 74 82 0 50 -22 79 -69 92 -49 13 -77 3 -140 -50
-26 -22 -56 -40 -67 -40 -32 0 -56 23 -52 51 2 19 10 25 36 27 35 4 46 32 13
32 -11 0 -27 3 -35 6 -12 4 -20 -4 -31 -30z"/>
<path d="M410 1725 c0 -16 -19 -20 -182 -38 -103 -12 -119 -11 -133 2 -22 22
-26 10 -19 -53 5 -37 11 -56 20 -56 8 0 14 6 14 14 0 17 15 22 86 31 50 6 52
6 58 -21 6 -21 3 -32 -10 -41 -25 -18 -11 -27 31 -19 34 7 50 26 21 26 -14 0
-29 51 -18 61 4 4 37 9 73 13 l67 6 6 -35 c8 -39 2 -55 -20 -55 -8 0 -14 -7
-14 -16 0 -12 7 -14 33 -9 17 4 33 8 33 9 2 1 -14 119 -21 164 -6 32 -25 46
-25 17z"/>
<path d="M5108 1711 c-49 -16 -62 -31 -29 -31 27 0 31 -18 31 -151 0 -121 -8
-159 -35 -159 -8 0 -15 -4 -15 -10 0 -6 32 -10 75 -10 71 0 99 11 55 23 -19 5
-20 14 -20 140 0 119 2 136 19 151 12 11 31 16 52 14 51 -5 59 -32 57 -173 -3
-114 -4 -121 -25 -130 -40 -17 -25 -25 52 -25 71 0 99 11 55 23 -19 5 -20 14
-20 129 -1 137 -10 196 -36 215 -28 20 -78 15 -118 -12 l-36 -24 0 24 c0 29 1
28 -62 6z"/>
<path d="M5483 1712 c-47 -18 -53 -27 -23 -35 20 -5 20 -12 18 -154 -3 -145
-3 -148 -25 -151 -13 -2 -23 -8 -23 -13 0 -5 36 -9 80 -9 81 0 98 7 58 25 -22
10 -23 14 -26 183 -1 94 -6 172 -10 171 -4 0 -26 -8 -49 -17z"/>
<path d="M6013 1710 c-61 -37 -93 -142 -73 -238 34 -155 188 -174 260 -31 29
55 25 58 -18 11 -33 -36 -45 -42 -79 -42 -69 0 -107 46 -115 140 l-3 35 108 3
c120 3 125 7 91 78 -30 62 -109 82 -171 44z m81 -11 c25 -12 51 -63 40 -80 -3
-5 -36 -9 -75 -9 -63 0 -69 2 -69 21 0 21 50 79 69 79 5 0 21 -5 35 -11z"/>
<path d="M6308 1712 c-54 -17 -58 -23 -25 -37 21 -10 22 -14 22 -150 0 -136
-1 -140 -22 -150 -42 -18 -24 -25 62 -25 50 0 85 4 85 10 0 6 -8 10 -18 10
-36 0 -42 20 -42 141 0 102 2 119 21 143 19 24 22 25 48 11 33 -16 51 -5 51
32 0 16 -7 25 -26 29 -20 5 -32 0 -60 -27 l-34 -33 0 32 c0 36 2 36 -62 14z"/>
<path d="M6555 1704 c-18 -19 -25 -38 -25 -66 0 -54 11 -71 78 -119 31 -23 63
-49 70 -57 21 -27 15 -70 -13 -88 -39 -26 -78 -4 -109 60 l-25 51 -1 -65 0
-65 43 -4 c94 -7 108 -5 133 21 33 32 42 94 21 135 -9 16 -43 47 -75 68 -71
45 -90 76 -67 111 30 47 95 24 110 -38 10 -39 29 -36 21 3 -3 17 -6 41 -6 53
0 19 -6 21 -65 24 -60 3 -67 1 -90 -24z"/>
<path d="M6823 1712 c-45 -17 -56 -32 -24 -32 27 0 31 -18 31 -145 0 -120 -10
-165 -35 -165 -8 0 -15 -4 -15 -10 0 -6 32 -10 75 -10 71 0 99 11 55 23 -19 5
-20 14 -20 181 0 194 4 185 -67 158z"/>
<path d="M7403 1710 c-51 -31 -59 -105 -11 -98 18 2 24 11 26 38 5 45 18 60
53 60 35 0 59 -32 59 -81 0 -35 -2 -37 -75 -73 -82 -41 -105 -69 -105 -131 0
-70 75 -98 146 -55 l33 21 11 -21 c17 -31 71 -25 91 11 9 18 7 19 -15 13 l-26
-6 0 108 c-1 133 -11 182 -45 212 -33 28 -98 30 -142 2z m115 -297 c-42 -51
-108 -29 -108 35 0 47 12 64 70 96 l45 26 3 -71 c2 -46 -1 -76 -10 -86z"/>
<path d="M8660 1692 c-42 -42 -60 -93 -59 -167 2 -134 91 -215 186 -169 40 20
92 86 93 119 0 16 -4 14 -22 -12 -46 -65 -115 -75 -160 -24 -27 30 -48 86 -48
129 0 21 3 22 110 22 122 0 123 1 96 64 -20 49 -60 76 -114 76 -38 0 -50 -5
-82 -38z m115 -7 c14 -13 25 -36 25 -50 0 -25 -1 -25 -74 -25 l-75 0 9 30 c12
40 19 50 44 60 34 14 45 12 71 -15z"/>
<path d="M9363 1710 c-39 -23 -53 -65 -30 -87 22 -23 47 -9 47 26 0 37 23 61
60 61 35 0 50 -23 50 -79 0 -39 -1 -40 -60 -67 -108 -48 -149 -125 -99 -188
26 -32 79 -35 127 -6 40 24 38 24 45 0 7 -26 57 -27 80 -2 23 25 21 32 -5 29
-23 -2 -23 0 -28 133 -3 84 -10 144 -18 158 -26 45 -113 56 -169 22z m102
-307 c-32 -28 -49 -29 -75 -3 -42 42 -15 112 58 149 l37 19 3 -71 c3 -67 1
-74 -23 -94z"/>
<path d="M9721 1717 c-62 -31 -86 -148 -43 -207 27 -36 27 -42 2 -65 -21 -19
-28 -79 -10 -90 5 -3 -2 -22 -15 -42 -30 -43 -32 -86 -6 -112 39 -39 146 -39
209 -1 61 37 91 120 59 164 -15 21 -74 35 -143 36 -60 0 -82 17 -65 49 8 15
21 19 57 19 37 0 52 6 75 28 39 37 56 93 42 139 -11 34 -11 35 18 35 19 0 29
5 29 15 0 11 -11 15 -37 15 -21 1 -49 7 -63 15 -31 18 -77 19 -109 2z m81 -38
c12 -16 22 -49 25 -85 4 -49 2 -63 -14 -83 -15 -18 -26 -23 -45 -18 -34 9 -53
56 -53 130 0 47 4 62 20 73 26 19 44 15 67 -17z m74 -359 c31 -12 31 -44 0
-75 -41 -41 -146 -46 -187 -9 -24 21 -24 61 -1 87 15 17 25 18 90 13 40 -4 84
-11 98 -16z"/>
<path d="M10065 1721 c-28 -13 -72 -61 -84 -94 -6 -16 -11 -57 -11 -93 0 -137
84 -215 198 -185 42 12 86 54 104 100 14 37 13 140 -1 182 -6 20 -25 49 -41
64 -25 24 -40 29 -87 32 -32 1 -67 -1 -78 -6z m109 -41 c32 -39 46 -88 46
-167 0 -99 -26 -143 -84 -143 -33 0 -62 23 -85 68 -15 29 -25 140 -17 185 16
87 90 116 140 57z"/>
<path d="M10420 1717 c-14 -6 -35 -32 -48 -57 -28 -54 -25 -108 8 -153 22 -29
22 -29 2 -56 -28 -39 -34 -65 -18 -86 11 -16 10 -23 -11 -54 -56 -83 -6 -147
109 -138 32 3 73 14 90 24 65 38 98 122 65 167 -15 21 -74 35 -143 36 -61 0
-82 17 -64 50 7 13 20 21 33 20 47 -4 67 1 96 26 40 33 58 92 44 139 -11 34
-11 35 18 35 19 0 29 5 29 15 0 11 -11 15 -37 15 -21 1 -49 7 -63 15 -31 18
-77 19 -110 2z m81 -37 c11 -14 22 -51 25 -85 5 -50 3 -64 -13 -84 -15 -18
-26 -23 -45 -18 -33 9 -52 55 -53 130 0 47 4 61 20 73 26 19 44 15 66 -16z
m22 -349 c62 -10 85 -31 70 -64 -17 -36 -76 -60 -135 -55 -76 8 -109 54 -76
108 14 22 55 25 141 11z"/>
<path d="M10705 1710 l-50 -18 28 -11 28 -11 -3 -142 c-3 -137 -4 -143 -25
-153 -40 -17 -25 -25 52 -25 71 0 99 11 55 23 -19 5 -20 14 -20 181 0 97 -3
176 -7 175 -5 0 -30 -9 -58 -19z"/>
<path d="M10916 1700 c-49 -43 -69 -103 -64 -188 3 -54 9 -78 31 -110 55 -84
149 -77 207 14 39 63 38 77 -3 32 -41 -44 -67 -53 -110 -35 -45 19 -69 72 -69
152 0 96 41 155 98 141 17 -5 26 -17 34 -46 9 -33 15 -40 35 -40 29 0 41 30
24 62 -20 37 -41 47 -96 48 -44 0 -58 -5 -87 -30z"/>
<path d="M11209 1707 c-28 -19 -34 -29 -34 -57 0 -31 3 -35 25 -35 21 0 25 5
28 35 5 45 18 60 52 60 36 0 51 -20 58 -75 4 -42 3 -45 -24 -55 -61 -24 -97
-44 -125 -72 -37 -37 -41 -106 -9 -138 26 -26 83 -26 126 0 l33 21 11 -21 c17
-31 71 -25 91 11 9 18 7 19 -15 13 l-26 -6 0 103 c-1 137 -11 188 -45 216 -36
31 -100 31 -146 0z m131 -215 c0 -53 -4 -72 -17 -84 -50 -42 -103 -22 -103 38
0 48 14 70 58 93 59 32 62 29 62 -47z"/>
<path d="M5603 1702 c9 -9 43 -91 77 -182 33 -90 64 -168 68 -172 5 -5 34 66
66 157 32 91 67 177 78 190 l19 25 -53 0 c-46 -1 -51 -2 -35 -14 9 -7 17 -19
17 -27 0 -18 -60 -202 -70 -212 -8 -9 -80 183 -80 212 0 10 10 23 23 29 18 9
9 11 -52 11 -70 1 -73 0 -58 -17z"/>
<path d="M11628 1703 c12 -10 47 -90 82 -187 l61 -168 -17 -44 c-21 -55 -38
-69 -83 -69 -33 0 -36 -2 -36 -30 0 -25 4 -31 27 -33 67 -8 82 19 173 303 37
116 74 218 83 228 14 16 12 17 -39 17 -50 0 -52 -1 -32 -15 15 -10 20 -22 16
-37 -7 -29 -52 -188 -60 -208 -5 -14 -83 199 -83 227 0 8 10 18 23 23 16 6 1
9 -57 9 -75 1 -78 0 -58 -16z"/>
<path d="M3481 1539 c-6 -18 -11 -34 -11 -35 0 -9 29 -3 32 6 2 5 47 -19 101
-54 l99 -63 -39 -6 c-21 -4 -75 -7 -120 -7 -67 0 -83 3 -83 15 0 32 -19 13
-35 -35 -16 -48 -12 -88 6 -59 6 10 57 15 186 22 98 4 182 12 186 16 4 4 -60
52 -143 106 -82 54 -150 104 -150 112 0 24 -18 13 -29 -18z"/>
<path d="M448 1492 c-3 -10 -66 -65 -141 -123 -75 -57 -137 -108 -137 -112 0
-4 82 -7 183 -7 100 1 190 -1 200 -5 20 -8 22 4 5 40 -12 27 -28 34 -28 11 0
-11 -27 -16 -115 -21 -64 -4 -118 -5 -121 -3 -6 7 168 138 183 138 7 0 13 -5
13 -12 0 -8 3 -9 10 -2 6 6 3 27 -9 59 -20 53 -36 67 -43 37z"/>
<path d="M3376 1245 l-19 -36 34 -37 c18 -20 54 -58 79 -84 36 -39 41 -48 25
-48 -18 0 -149 23 -201 35 -16 3 -26 -4 -42 -34 -28 -49 -28 -52 6 -45 35 6
276 -121 268 -142 -11 -29 15 -23 33 7 22 37 20 49 -8 42 -11 -3 -62 19 -125
52 -58 31 -106 58 -106 59 0 2 57 -8 127 -21 70 -13 130 -20 134 -16 4 5 -10
28 -32 53 -22 25 -58 67 -82 95 l-42 49 70 -38 c39 -21 87 -48 108 -59 20 -11
37 -26 37 -33 0 -30 20 -21 44 20 32 55 32 58 1 50 -33 -8 -277 120 -273 143
6 31 -18 23 -36 -12z"/>
<path d="M543 1203 c-36 -24 -29 -56 7 -33 10 6 21 3 37 -12 13 -12 23 -25 23
-29 0 -4 -57 -42 -126 -85 -106 -65 -130 -75 -145 -66 -33 21 -30 -6 7 -58 35
-48 57 -59 47 -22 -3 14 23 35 122 96 122 76 126 78 145 61 24 -22 25 -38 5
-55 -14 -12 -12 -30 4 -30 5 0 19 8 32 18 l22 19 -73 106 c-40 59 -76 107 -79
106 -3 0 -16 -7 -28 -16z"/>
<path d="M6656 1093 c-30 -38 -51 -69 -46 -71 10 -4 124 80 135 99 7 11 -12
39 -26 39 -4 0 -33 -30 -63 -67z"/>
<path d="M6348 1132 c-49 -16 -63 -32 -29 -32 28 0 31 -24 31 -247 0 -203 -7
-253 -35 -253 -8 0 -15 -4 -15 -10 0 -6 32 -10 75 -10 72 0 97 12 55 25 -19 6
-20 15 -20 276 0 148 -3 269 -7 268 -5 0 -29 -8 -55 -17z"/>
<path d="M7242 1138 c-30 -30 1 -93 36 -71 11 6 17 23 17 44 0 26 -4 35 -20
37 -11 1 -26 -3 -33 -10z"/>
<path d="M8408 1132 c-52 -17 -61 -29 -25 -34 21 -3 22 -9 25 -86 l3 -84 -23
16 c-12 9 -42 16 -66 16 -80 0 -142 -87 -142 -199 0 -141 99 -221 198 -161
l32 20 0 -21 c0 -13 5 -19 13 -16 6 2 29 10 50 18 41 15 47 24 17 32 -19 5
-20 14 -20 261 0 141 -3 255 -7 255 -5 -1 -29 -9 -55 -17z m-23 -217 c24 -23
25 -30 25 -144 0 -113 -1 -121 -22 -135 -71 -50 -148 34 -148 162 0 49 23 111
47 130 27 20 72 14 98 -13z"/>
<path d="M9938 1131 c-52 -18 -60 -28 -25 -33 22 -3 22 -3 25 -231 2 -229 -2
-267 -33 -267 -8 0 -15 -4 -15 -10 0 -6 32 -10 75 -10 77 0 90 6 55 28 -19 12
-20 23 -20 277 0 146 -3 265 -7 264 -5 -1 -29 -8 -55 -18z"/>
<path d="M11033 1132 c-42 -16 -57 -32 -29 -32 8 0 17 -7 20 -16 3 -9 6 -117
6 -240 l0 -225 43 -19 c48 -22 83 -25 124 -9 90 34 142 164 109 272 -18 59
-38 83 -83 98 -30 10 -41 8 -84 -13 l-49 -25 0 114 c0 62 -3 112 -7 112 -5 -1
-27 -9 -50 -17z m176 -237 c40 -35 57 -112 41 -190 -11 -55 -52 -105 -86 -105
-19 0 -57 19 -66 34 -4 6 -8 66 -8 133 0 115 1 123 22 137 32 23 62 20 97 -9z"/>
<path d="M11420 1136 c-15 -19 -9 -56 12 -69 34 -22 66 41 36 71 -16 16 -33
15 -48 -2z"/>
<path d="M9203 1116 c-185 -87 -193 -424 -12 -516 94 -49 187 -34 261 40 27
26 48 53 48 61 0 7 -19 -6 -42 -28 -51 -50 -82 -63 -150 -63 -46 0 -54 4 -93
43 -115 115 -94 375 36 442 40 21 106 19 145 -6 21 -12 43 -41 60 -75 15 -30
29 -53 31 -50 3 3 2 44 -2 92 -7 74 -10 85 -20 70 -12 -16 -17 -16 -66 -2 -75
23 -135 20 -196 -8z"/>
<path d="M4601 1058 l1 -73 11 45 c14 51 40 70 100 70 l37 0 -2 -242 -3 -243
-33 -11 c-52 -17 -26 -24 85 -24 100 0 134 12 73 25 -19 4 -32 14 -35 28 -3
12 -4 121 -3 242 l3 220 49 -1 c56 -1 86 -26 86 -75 0 -16 5 -29 10 -29 11 0
13 61 4 109 l-6 31 -189 0 -189 0 1 -72z"/>
<path d="M713 962 c0 -10 -36 -84 -81 -163 -45 -80 -82 -148 -82 -152 0 -15
31 -5 170 54 80 34 159 63 175 64 17 2 32 3 34 4 3 1 -8 14 -24 31 -28 30 -48
31 -43 3 2 -11 -26 -28 -100 -60 -57 -24 -106 -43 -107 -41 -2 2 22 46 53 98
41 68 62 94 75 92 27 -4 20 11 -21 51 -43 42 -51 45 -49 19z"/>
<path d="M5360 948 c-62 -32 -90 -88 -90 -180 0 -119 46 -188 126 -188 48 0
89 28 125 86 29 48 17 54 -21 10 -62 -70 -145 -39 -170 64 -14 60 -6 118 24
162 17 26 29 33 56 33 30 0 35 -4 48 -42 15 -48 43 -58 62 -23 22 41 -36 100
-99 100 -9 0 -37 -10 -61 -22z"/>
<path d="M6056 960 c-37 -12 -85 -56 -102 -97 -8 -18 -14 -60 -14 -95 0 -118
58 -188 157 -188 100 0 158 72 157 195 0 90 -28 146 -89 175 -44 21 -64 23
-109 10z m91 -47 c31 -38 46 -102 41 -187 -3 -62 -7 -79 -27 -100 -43 -46 -97
-31 -133 37 -30 57 -33 198 -5 240 34 52 85 56 124 10z"/>
<path d="M6604 960 c-41 -13 -90 -69 -103 -117 -25 -88 -6 -170 50 -226 39
-39 39 -39 105 -35 61 4 69 7 100 40 18 20 38 56 45 80 14 53 7 144 -15 186
-32 61 -112 93 -182 72z m88 -38 c49 -42 70 -212 35 -279 -34 -65 -107 -55
-145 19 -32 62 -35 188 -6 239 28 48 75 56 116 21z"/>
<path d="M7474 956 c-109 -49 -137 -248 -50 -341 28 -29 40 -35 75 -35 54 0
75 12 111 62 41 56 38 78 -4 34 -55 -59 -123 -48 -157 27 -44 98 -5 236 67
237 25 0 38 -13 51 -55 7 -22 16 -30 34 -30 19 0 25 6 27 30 6 62 -84 103
-154 71z"/>
<path d="M9646 960 c-128 -39 -158 -260 -47 -353 43 -36 122 -38 171 -4 55 37
75 81 75 167 0 97 -23 146 -85 178 -47 23 -67 26 -114 12z m83 -34 c49 -38 72
-217 37 -284 -34 -66 -108 -54 -146 23 -33 67 -35 182 -5 235 28 47 74 57 114
26z"/>
<path d="M10184 951 c-51 -23 -80 -64 -96 -130 -17 -76 3 -154 52 -203 35 -36
41 -38 99 -38 56 0 64 3 101 36 45 41 60 82 60 164 0 138 -106 223 -216 171z
m110 -42 c40 -47 57 -164 36 -241 -28 -99 -137 -86 -168 20 -17 57 -15 168 4
207 16 35 55 55 87 47 9 -2 28 -17 41 -33z"/>
<path d="M4996 925 c-39 -39 -56 -87 -56 -160 0 -75 16 -120 56 -154 49 -44
109 -44 159 0 35 31 65 77 65 99 0 6 -17 -7 -38 -30 -31 -32 -46 -40 -75 -40
-65 0 -117 67 -117 153 l0 27 110 0 c61 0 110 3 110 8 0 32 -26 85 -51 106
-24 20 -42 26 -79 26 -43 0 -54 -5 -84 -35z m123 -11 c12 -15 21 -37 21 -50 0
-23 -3 -24 -76 -24 l-76 0 6 28 c9 35 50 72 81 72 14 0 32 -11 44 -26z"/>
<path d="M5603 942 c-45 -17 -56 -32 -24 -32 27 0 31 -18 31 -151 0 -121 -8
-159 -35 -159 -8 0 -15 -4 -15 -10 0 -6 32 -10 75 -10 72 0 97 12 55 25 -20 6
-20 13 -18 142 3 134 3 136 30 156 36 27 73 17 87 -24 14 -40 14 -234 1 -260
-6 -10 -17 -19 -25 -19 -8 0 -15 -4 -15 -10 0 -6 32 -10 75 -10 70 0 99 11 56
23 -17 4 -19 18 -23 154 -5 183 -13 203 -82 203 -33 0 -52 -7 -75 -26 l-31
-26 0 26 c0 29 -7 30 -67 8z"/>
<path d="M6931 944 c-55 -39 -69 -151 -25 -203 l26 -31 -26 -31 c-27 -32 -33
-68 -15 -86 8 -8 4 -21 -15 -49 -14 -21 -26 -48 -26 -59 0 -94 177 -111 262
-25 33 32 38 44 38 82 0 65 -20 80 -128 89 -48 4 -88 8 -90 8 -2 1 -2 13 0 29
3 25 7 27 53 32 28 3 60 11 71 18 34 18 57 78 52 133 -5 46 -4 49 18 49 17 0
24 6 24 19 0 20 4 19 -147 37 -36 4 -54 1 -72 -12z m101 -44 c34 -67 19 -180
-23 -180 -42 0 -69 52 -69 132 0 65 14 90 48 86 19 -2 32 -13 44 -38z m48
-343 c29 -10 35 -17 35 -41 0 -45 -42 -71 -115 -71 -48 0 -63 5 -84 24 -30 28
-32 47 -10 79 13 19 24 22 77 21 34 0 78 -5 97 -12z"/>
<path d="M7225 940 c-37 -17 -38 -19 -17 -26 22 -6 22 -10 22 -155 l0 -149
-25 -6 c-14 -3 -22 -10 -19 -15 7 -12 154 -11 154 1 0 6 -7 10 -15 10 -27 0
-35 47 -35 206 0 170 2 165 -65 134z"/>
<path d="M7733 940 c-18 -11 -35 -31 -39 -45 -7 -27 9 -55 32 -55 16 0 33 30
27 47 -9 25 17 53 50 53 44 0 57 -16 57 -70 l0 -46 -58 -27 c-32 -15 -69 -37
-81 -48 -68 -64 -45 -169 37 -169 20 0 51 9 67 20 37 25 42 25 50 0 8 -24 42
-26 73 -4 28 20 28 34 0 31 -23 -2 -23 0 -28 141 -5 142 -5 144 -33 168 -36
31 -107 33 -154 4z m111 -301 c-37 -41 -104 -10 -104 47 0 29 35 71 78 93 l37
19 3 -70 c2 -55 -1 -74 -14 -89z"/>
<path d="M8628 944 c-63 -34 -98 -180 -64 -269 46 -118 177 -130 241 -22 36
63 31 74 -13 27 -32 -33 -46 -40 -76 -40 -62 0 -116 73 -116 158 0 21 3 22
110 22 89 0 110 3 110 14 0 27 -21 71 -48 99 -21 22 -34 27 -71 27 -25 -1 -58
-8 -73 -16z m101 -30 c12 -15 21 -37 21 -50 0 -23 -3 -24 -75 -24 -41 0 -75 2
-75 5 0 3 6 21 14 39 25 60 80 74 115 30z"/>
<path d="M10488 941 c-52 -18 -60 -28 -25 -33 22 -3 22 -5 22 -148 0 -140 -1
-145 -22 -156 -34 -17 -17 -24 57 -24 74 0 91 7 57 24 -21 11 -22 18 -25 141
-3 123 -2 131 19 148 12 9 37 17 55 17 48 0 55 -26 52 -174 -3 -115 -4 -122
-25 -131 -40 -17 -25 -25 52 -25 71 0 99 11 55 23 -19 5 -20 14 -20 140 0 119
2 136 19 151 28 26 82 18 98 -14 15 -30 18 -217 3 -254 -5 -14 -16 -26 -25
-26 -8 0 -15 -4 -15 -10 0 -6 32 -10 75 -10 70 0 99 11 56 23 -16 4 -19 19
-23 148 -6 177 -18 209 -81 209 -32 0 -62 -13 -94 -43 -13 -11 -23 -16 -23
-11 0 6 -9 20 -20 32 -28 30 -76 28 -123 -3 l-37 -26 0 26 c0 29 1 29 -62 6z"/>
<path d="M11413 946 c-44 -16 -51 -26 -25 -33 22 -5 22 -8 20 -151 -3 -140 -4
-147 -25 -158 -34 -17 -17 -24 57 -24 74 0 91 7 57 24 -21 11 -22 17 -25 184
-3 186 0 179 -59 158z"/>
<path d="M11613 940 c-39 -23 -53 -65 -30 -87 21 -22 47 -9 47 22 0 45 17 65
55 65 41 0 55 -20 55 -78 0 -35 -3 -41 -32 -52 -129 -51 -181 -135 -127 -204
26 -32 80 -35 124 -6 37 25 42 25 50 0 8 -24 42 -26 73 -4 28 20 28 34 0 31
-23 -2 -23 0 -28 141 -5 142 -5 144 -33 168 -36 31 -107 33 -154 4z m111 -301
c-34 -38 -104 -12 -104 38 0 13 5 34 11 46 12 23 21 30 73 60 l31 17 3 -71 c2
-56 -1 -75 -14 -90z"/>
<path d="M3135 900 c-3 -4 31 -72 75 -151 44 -79 80 -154 80 -166 0 -29 11
-29 38 0 27 28 28 40 4 33 -12 -4 -23 3 -35 23 -23 39 -22 41 18 89 35 41 36
41 73 28 28 -11 36 -18 35 -35 -2 -11 1 -21 5 -21 10 0 82 73 82 83 0 4 -12 7
-27 7 -16 0 -99 27 -186 59 -86 32 -159 55 -162 51z m137 -102 l59 -21 -32
-34 c-18 -18 -35 -33 -38 -33 -6 0 -61 96 -61 105 0 8 10 6 72 -17z"/>
<path d="M3021 768 c-85 -42 -102 -119 -47 -212 52 -89 137 -126 207 -91 47
24 89 65 82 81 -4 11 -15 5 -44 -21 -45 -40 -78 -44 -125 -16 -42 26 -95 112
-101 165 -5 38 -2 45 22 64 32 26 58 28 75 7 12 -14 40 -21 40 -10 0 16 -35
55 -49 55 -9 0 -36 -10 -60 -22z"/>
<path d="M943 740 c7 -28 -169 -230 -200 -230 -32 0 -28 -11 15 -43 38 -28 59
-32 54 -9 -4 15 64 102 79 102 13 0 11 -32 -8 -107 l-16 -67 33 -27 c32 -27
62 -30 41 -5 -7 8 -6 36 2 86 l13 75 39 6 c49 8 95 56 95 99 0 24 -12 39 -67
85 -72 59 -88 66 -80 35z m79 -67 c10 -9 18 -24 18 -34 0 -23 -56 -79 -80 -79
-26 0 -50 10 -50 22 0 9 81 107 89 108 3 0 13 -7 23 -17z"/>
<path d="M2828 641 c-47 -27 -52 -41 -17 -41 11 0 42 -39 86 -107 91 -140 86
-132 73 -148 -7 -8 -7 -15 -1 -19 13 -8 105 46 100 59 -2 6 -9 9 -15 7 -15 -3
-21 5 -104 134 -48 73 -67 111 -60 118 5 5 10 14 10 18 0 14 -24 7 -72 -21z"/>
<path d="M1120 602 c0 -4 4 -12 9 -17 5 -6 1 -78 -10 -174 -10 -91 -16 -169
-13 -173 3 -5 64 47 135 114 72 68 137 122 145 122 24 -3 16 22 -11 34 -36 17
-47 15 -41 -6 4 -13 -16 -40 -75 -97 l-81 -80 6 65 c15 150 18 160 37 160 34
0 20 17 -32 39 -56 23 -69 25 -69 13z"/>
<path d="M2668 548 c-86 -40 -107 -58 -69 -58 25 0 160 -258 141 -270 -7 -4
-10 -13 -6 -19 5 -7 25 -1 61 16 60 29 67 40 33 45 -16 2 -32 20 -52 57 -28
52 -28 55 -10 68 11 8 31 12 47 9 31 -6 32 -5 12 35 -9 16 -20 27 -26 24 -5
-4 -7 -10 -4 -15 6 -10 -33 -40 -51 -40 -6 0 -26 27 -43 60 l-32 60 35 17 c31
14 39 15 61 3 14 -7 28 -10 31 -7 8 7 -23 57 -34 56 -4 0 -46 -19 -94 -41z"/>
<path d="M2483 473 c-46 -16 -54 -28 -24 -36 13 -3 33 -42 69 -133 45 -115 49
-131 35 -146 -22 -25 -1 -29 53 -11 63 20 73 30 43 42 -20 7 -34 33 -72 133
-49 129 -54 148 -37 148 6 0 10 5 10 10 0 14 -27 11 -77 -7z"/>
<path d="M1410 472 c0 -4 5 -13 11 -19 8 -8 8 -21 1 -45 -6 -18 -25 -79 -41
-134 -26 -83 -35 -103 -53 -108 -30 -7 -14 -23 35 -31 36 -7 47 1 27 21 -9 9
44 210 61 229 5 5 9 -22 9 -65 0 -92 10 -180 20 -180 5 0 41 43 81 95 39 52
73 94 75 92 2 -2 -10 -48 -27 -102 -20 -68 -37 -105 -52 -117 -24 -18 -27 -16
45 -38 42 -13 68 -5 44 13 -14 11 -11 28 26 150 33 111 45 137 60 137 18 0 25
15 10 24 -4 2 -23 7 -43 11 -36 7 -36 6 -105 -86 l-69 -93 -7 49 c-3 28 -7 80
-7 116 l-1 67 -44 11 c-53 13 -56 13 -56 3z"/>
<path d="M2256 412 c-44 -10 -81 -23 -84 -30 -2 -7 5 -12 17 -12 12 0 21 -3
21 -6 0 -3 14 -65 30 -137 28 -119 29 -133 15 -143 -30 -22 4 -26 88 -9 45 10
90 21 100 27 58 31 77 156 35 238 -43 83 -93 99 -222 72z m109 -24 c38 -17 67
-81 73 -159 4 -58 2 -68 -19 -91 -27 -29 -74 -44 -85 -27 -6 11 -64 252 -64
269 0 19 60 24 95 8z"/>
<path d="M1912 298 c-27 -51 -66 -125 -86 -165 -19 -39 -43 -76 -52 -81 -26
-15 2 -25 44 -16 22 4 30 9 20 11 -22 5 -22 13 -1 58 16 34 18 35 75 35 l58 0
0 -40 c0 -27 -6 -42 -17 -49 -13 -8 16 -10 105 -11 l122 0 0 30 c0 20 -5 30
-15 30 -8 0 -15 -6 -15 -14 0 -8 -7 -17 -16 -20 -22 -8 -82 -7 -87 2 -3 4 -8
35 -12 68 l-7 61 29 6 c16 3 37 0 51 -9 22 -14 22 -14 22 28 -1 38 -2 41 -14
26 -8 -12 -27 -18 -50 -18 l-36 0 0 71 0 70 48 -3 c40 -3 47 -6 50 -26 5 -31
22 -17 22 19 l0 29 -94 0 -94 0 -50 -92z m58 -55 l0 -73 -50 0 -50 0 42 85
c27 54 45 80 50 72 4 -7 8 -45 8 -84z"/>
</g>
</svg>
